# xmcd CD database file
#
# Track frame offsets:
#	150
#	24694
#	41012
#	68715
#	94563
#	116081
#	134879
#	164430
#	179656
#	206183
#	223438
#
# Disc length: 3253 seconds
#
# Revision: 2
# Processed by: cddbd v1.5.2PL0 Copyright (c) Steve Scherf et al.
# Submitted via: CDex 1.95
#
DISCID=b40cb30b
DTITLE=Marc Ribot - Songs Of Resistance 1942 - 2018
DYEAR=2018
DGENRE=Jazz
TTITLE0=We Are Soldiers in the Army
TTITLE1=Bella ciao
TTITLE2=Srinivas
TTITLE3=How To Walk In Freedom
TTITLE4=Rata de dos Patas
TTITLE5=The Militant Ecologist (Based on Fischia II Vento)
TTITLE6=The Big Fool
TTITLE7=Ain't Gonna Let Them Turn Us Round
TTITLE8=John Brown
TTITLE9=Knock That Statue Down
TTITLE10=We'll Never Turn Back
EXTD=YEAR: 2018
EXTT0=
EXTT1=
EXTT2=
EXTT3=
EXTT4=
EXTT5=
EXTT6=
EXTT7=
EXTT8=
EXTT9=
EXTT10=
PLAYORDER=
